<?xml version="1.0" encoding="UTF-8" standalone="no"?>
<!-- Created with Inkscape (http://www.inkscape.org/) -->

<svg
   width="413.94485mm"
   height="110.00002mm"
   viewBox="0 0 413.94485 110.00001"
   version="1.1"
   id="svg1"
   inkscape:version="1.4 (e7c3feb1, 2024-10-09)"
   sodipodi:docname="ideahelix_light.svg"
   xmlns:inkscape="http://www.inkscape.org/namespaces/inkscape"
   xmlns:sodipodi="http://sodipodi.sourceforge.net/DTD/sodipodi-0.dtd"
   xmlns:xlink="http://www.w3.org/1999/xlink"
   xmlns="http://www.w3.org/2000/svg"
   xmlns:svg="http://www.w3.org/2000/svg">
  <sodipodi:namedview
     id="namedview1"
     pagecolor="#ffffff"
     bordercolor="#111111"
     borderopacity="1"
     inkscape:showpageshadow="0"
     inkscape:pageopacity="0"
     inkscape:pagecheckerboard="1"
     inkscape:deskcolor="#d1d1d1"
     inkscape:document-units="mm"
     showgrid="true"
     inkscape:zoom="0.39902361"
     inkscape:cx="966.10825"
     inkscape:cy="318.27691"
     inkscape:window-width="1512"
     inkscape:window-height="945"
     inkscape:window-x="0"
     inkscape:window-y="37"
     inkscape:window-maximized="0"
     inkscape:current-layer="layer1">
    <inkscape:grid
       id="grid1"
       units="mm"
       originx="-30.000002"
       originy="-24.999985"
       spacingx="0.99999998"
       spacingy="1"
       empcolor="#0099e5"
       empopacity="0.30196078"
       color="#0099e5"
       opacity="0.14901961"
       empspacing="5"
       enabled="true"
       visible="true" />
  </sodipodi:namedview>
  <defs
     id="defs1">
    <rect
       x="604.72443"
       y="-37.72073"
       width="17.906349"
       height="302.28772"
       id="rect6" />
    <linearGradient
       id="linearGradient4"
       inkscape:collect="always">
      <stop
         style="stop-color:#706bc8;stop-opacity:1;"
         offset="0"
         id="stop4" />
      <stop
         style="stop-color:#997bc8;stop-opacity:1;"
         offset="1"
         id="stop5" />
    </linearGradient>
    <inkscape:path-effect
       effect="bend_path"
       id="path-effect1"
       is_visible="true"
       lpeversion="1"
       bendpath="M 12.844172,112.00118 182.90103,162.8641"
       prop_scale="1.17"
       scale_y_rel="false"
       vertical="false"
       hide_knot="false"
       bendpath-nodetypes="cc" />
    <linearGradient
       inkscape:collect="always"
       xlink:href="#linearGradient4"
       id="linearGradient5"
       x1="115"
       y1="80"
       x2="80"
       y2="65"
       gradientUnits="userSpaceOnUse" />
  </defs>
  <g
     inkscape:label="Layer 1"
     inkscape:groupmode="layer"
     id="layer1"
     transform="translate(-30.000001,-24.999985)">
    <path
       id="rect1"
       style="fill:#84ddea;fill-opacity:1;stroke-width:0.264583"
       d="M 30.000001,74.999998 125,24.999999 V 54.999998 L 30.000001,105 Z"
       sodipodi:nodetypes="ccccc" />
    <path
       id="rect1-8"
       style="fill:#55c5e4;fill-opacity:1;stroke-width:0.264583"
       d="M 30.000001,105 125,54.999996 V 84.999995 L 30.000001,135 Z"
       sodipodi:nodetypes="ccccc" />
    <path
       id="rect1-8-1"
       style="fill:url(#linearGradient5);fill-opacity:1;stroke-width:0.264583"
       d="M 125,74.999998 30.000007,24.999985 v 30 L 125,105 Z"
       sodipodi:nodetypes="ccccc" />
    <path
       style="font-size:67.2335px;font-family:Iosevka;-inkscape-font-specification:Iosevka;stroke-width:5.60283"
       d="m 150,99.416618 v -4.706344 h 9.14376 V 54.706342 H 150 v -4.706344 h 23.53173 v 4.706344 h -9.14376 v 40.003932 h 9.14376 v 4.706344 z m 43.09667,0.537868 q -1.68083,0 -3.36167,-0.470634 -1.61361,-0.470635 -2.89104,-1.479137 -1.27744,-1.008503 -2.21871,-2.420406 -0.87403,-1.479137 -1.4119,-3.025507 -0.47064,-1.613604 -0.67234,-3.227208 -0.2017,-1.680838 -0.2017,-3.361675 v -8.06802 q 0,-1.680837 0.2017,-3.294441 0.2017,-1.680838 0.67234,-3.227208 0.53787,-1.613604 1.4119,-3.025508 0.94127,-1.479137 2.21871,-2.487639 1.27743,-1.008502 2.89104,-1.479137 1.68084,-0.470634 3.36167,-0.470634 1.54637,0 3.09274,0.403401 1.54637,0.403401 2.82381,1.34467 1.27744,0.941269 2.15147,2.218705 0.94127,1.277436 1.47914,2.756573 V 49.999998 h 5.24421 v 49.41662 h -5.24421 v -6.185481 q -0.53787,1.479137 -1.47914,2.756573 -0.87403,1.277436 -2.15147,2.218705 -1.27744,0.941269 -2.82381,1.34467 -1.54637,0.403401 -3.09274,0.403401 z m 2.01701,-4.706345 q 1.14297,0 2.2187,-0.268933 1.14297,-0.268934 2.01701,-0.941269 0.94127,-0.672335 1.6136,-1.613604 0.67234,-0.941269 1.0085,-2.017005 0.40341,-1.075736 0.53787,-2.151472 0.13447,-1.14297 0.13447,-2.285939 v -8.06802 q 0,-1.142969 -0.13447,-2.218705 -0.13446,-1.14297 -0.53787,-2.218706 -0.33616,-1.075736 -1.0085,-2.017005 -0.67233,-0.941269 -1.6136,-1.613604 -0.87404,-0.672335 -2.01701,-0.941269 -1.07573,-0.268934 -2.2187,-0.268934 -1.14297,0 -2.28594,0.268934 -1.07574,0.268934 -2.01701,0.941269 -0.87403,0.672335 -1.54637,1.613604 -0.67233,0.941269 -1.07573,2.017005 -0.33617,1.075736 -0.47064,2.218706 -0.13446,1.075736 -0.13446,2.218705 v 8.06802 q 0,1.142969 0.13446,2.285939 0.13447,1.075736 0.47064,2.151472 0.4034,1.075736 1.07573,2.017005 0.67234,0.941269 1.54637,1.613604 0.94127,0.672335 2.01701,0.941269 1.14297,0.268933 2.28594,0.268933 z m 33.88568,4.706345 q -1.8153,0 -3.63061,-0.403401 -1.74807,-0.336167 -3.36167,-1.210203 -1.54637,-0.874035 -2.82381,-2.218705 -1.2102,-1.411903 -1.94977,-3.025507 -0.73957,-1.680838 -1.0085,-3.496142 -0.26894,-1.815305 -0.26894,-3.630609 v -8.06802 q 0,-1.815304 0.26894,-3.630609 0.26893,-1.815304 1.0085,-3.428908 0.73957,-1.680838 1.94977,-3.025508 1.27744,-1.411903 2.82381,-2.285938 1.6136,-0.874036 3.36167,-1.210203 1.81531,-0.403401 3.63061,-0.403401 1.81531,0 3.56338,0.403401 1.8153,0.336167 3.36167,1.210203 1.61361,0.874035 2.82381,2.285938 1.27743,1.34467 2.017,3.025508 0.73957,1.613604 1.00851,3.428908 0.26893,1.815305 0.26893,3.630609 v 6.387182 h -20.84238 v 1.680838 q 0,1.142969 0.13446,2.285939 0.13447,1.142969 0.53787,2.218705 0.4034,1.075736 1.07574,2.017005 0.73956,0.941269 1.68083,1.613604 0.94127,0.605102 2.08424,0.874036 1.14297,0.268933 2.28594,0.268933 1.34467,0 2.62211,-0.2017 1.34467,-0.268934 2.48764,-0.941269 1.14297,-0.739568 1.8153,-1.882538 0.73957,-1.210203 0.73957,-2.554873 h 5.24421 q 0,1.546371 -0.53787,3.025508 -0.47063,1.479137 -1.4119,2.756573 -0.87403,1.210203 -2.15147,2.151472 -1.27744,0.874035 -2.75657,1.411903 -1.41191,0.537868 -2.95828,0.739569 -1.54637,0.2017 -3.09274,0.2017 z m 7.79909,-20.371749 v -1.680838 q 0,-1.142969 -0.13447,-2.285939 -0.13447,-1.142969 -0.53787,-2.218705 -0.4034,-1.075736 -1.14297,-2.017005 -0.67233,-0.941269 -1.6136,-1.546371 -0.94127,-0.672335 -2.08424,-0.941269 -1.14297,-0.268934 -2.28594,-0.268934 -1.14297,0 -2.28594,0.268934 -1.14297,0.268934 -2.08424,0.941269 -0.94127,0.605102 -1.68083,1.546371 -0.67234,0.941269 -1.07574,2.017005 -0.4034,1.075736 -0.53787,2.218705 -0.13446,1.14297 -0.13446,2.285939 v 1.680838 z m 23.46449,20.371749 q -2.08424,0 -4.16848,-0.537868 -2.017,-0.605101 -3.56337,-2.017005 -1.54637,-1.411903 -2.28594,-3.428908 -0.67233,-2.084238 -0.67233,-4.168477 0,-1.680837 0.4034,-3.361675 0.47063,-1.680837 1.54637,-2.958274 1.07573,-1.34467 2.55487,-2.218705 1.47914,-0.941269 3.09274,-1.479137 1.6136,-0.537868 3.29444,-0.739568 1.68084,-0.201701 3.42891,-0.201701 h 5.98378 v -3.294441 q 0,-1.411904 -0.47063,-2.823807 -0.47064,-1.411904 -1.54637,-2.353173 -1.07574,-0.941269 -2.48764,-1.34467 -1.41191,-0.403401 -2.82381,-0.403401 -1.27744,0 -2.55487,0.268934 -1.27744,0.201701 -2.42041,0.941269 -1.07573,0.672335 -1.74807,1.815305 -0.6051,1.142969 -0.6051,2.420406 v 0.134467 h -5.24421 v -0.201701 q 0,-1.54637 0.47063,-2.958274 0.47064,-1.479137 1.34467,-2.68934 0.87404,-1.277436 2.08424,-2.151471 1.27744,-0.874036 2.68934,-1.34467 1.47914,-0.537868 2.95827,-0.739569 1.47914,-0.2017 3.02551,-0.2017 1.6136,0 3.22721,0.268934 1.6136,0.2017 3.09274,0.874035 1.47914,0.672335 2.68934,1.748071 1.27744,1.075736 2.08424,2.487639 0.8068,1.411904 1.14297,3.025508 0.33616,1.613604 0.33616,3.227208 v 23.867891 h -5.24421 v -5.58038 q -0.53787,1.411903 -1.54637,2.622106 -0.94127,1.210203 -2.2187,2.017005 -1.27744,0.806802 -2.82381,1.14297 -1.47914,0.336167 -3.02551,0.336167 z m 2.08424,-4.706345 q 1.54637,0 3.02551,-0.470634 1.54637,-0.537868 2.55487,-1.680837 1.07574,-1.14297 1.47914,-2.68934 0.47063,-1.546371 0.47063,-3.092741 v -3.765076 h -5.98378 q -1.0085,0 -2.017,0.134467 -1.00851,0.06723 -2.01701,0.336167 -0.94127,0.201701 -1.88254,0.605102 -0.94127,0.403401 -1.68084,1.075736 -0.73956,0.672335 -1.14296,1.680837 -0.33617,0.941269 -0.33617,1.949772 0,1.34467 0.6051,2.622106 0.6051,1.210203 1.68084,2.017005 1.14297,0.739569 2.48764,1.008503 1.34467,0.268933 2.75657,0.268933 z m 21.38025,4.168477 v -49.41662 h 5.24421 v 21.514719 h 14.52244 V 49.999998 h 5.24421 v 49.41662 h -5.24421 V 76.221062 h -14.52244 v 23.195556 z m 46.12217,0.537868 q -1.8153,0 -3.63061,-0.403401 -1.74807,-0.336167 -3.36167,-1.210203 -1.54637,-0.874035 -2.82381,-2.218705 -1.2102,-1.411903 -1.94977,-3.025507 -0.73957,-1.680838 -1.0085,-3.496142 -0.26893,-1.815305 -0.26893,-3.630609 v -8.06802 q 0,-1.815304 0.26893,-3.630609 0.26893,-1.815304 1.0085,-3.428908 0.73957,-1.680838 1.94977,-3.025508 1.27744,-1.411903 2.82381,-2.285938 1.6136,-0.874036 3.36167,-1.210203 1.81531,-0.403401 3.63061,-0.403401 1.81531,0 3.56338,0.403401 1.8153,0.336167 3.36167,1.210203 1.61361,0.874035 2.82381,2.285938 1.27744,1.34467 2.01701,3.025508 0.73956,1.613604 1.0085,3.428908 0.26893,1.815305 0.26893,3.630609 v 6.387182 h -20.84238 v 1.680838 q 0,1.142969 0.13446,2.285939 0.13447,1.142969 0.53787,2.218705 0.4034,1.075736 1.07574,2.017005 0.73957,0.941269 1.68084,1.613604 0.94127,0.605102 2.08423,0.874036 1.14297,0.268933 2.28594,0.268933 1.34467,0 2.62211,-0.2017 1.34467,-0.268934 2.48764,-0.941269 1.14297,-0.739568 1.8153,-1.882538 0.73957,-1.210203 0.73957,-2.554873 h 5.24422 q 0,1.546371 -0.53787,3.025508 -0.47064,1.479137 -1.41191,2.756573 -0.87403,1.210203 -2.15147,2.151472 -1.27743,0.874035 -2.75657,1.411903 -1.41191,0.537868 -2.95828,0.739569 -1.54637,0.2017 -3.09274,0.2017 z m 7.79909,-20.371749 v -1.680838 q 0,-1.142969 -0.13447,-2.285939 -0.13446,-1.142969 -0.53787,-2.218705 -0.4034,-1.075736 -1.14297,-2.017005 -0.67233,-0.941269 -1.6136,-1.546371 -0.94127,-0.672335 -2.08424,-0.941269 -1.14297,-0.268934 -2.28594,-0.268934 -1.14297,0 -2.28594,0.268934 -1.14296,0.268934 -2.08423,0.941269 -0.94127,0.605102 -1.68084,1.546371 -0.67234,0.941269 -1.07574,2.017005 -0.4034,1.075736 -0.53787,2.218705 -0.13446,1.14297 -0.13446,2.285939 v 1.680838 z m 14.05181,19.833881 v -4.706344 h 9.61439 V 54.706342 h -8.67312 v -4.706344 h 13.91733 v 44.710276 h 8.67313 v 4.706344 z m 33.61675,0 v -4.706344 h 9.61439 v -25.54873 h -8.67312 V 64.4552 h 13.91733 v 30.255074 h 8.67312 v 4.706344 z m 12.10203,-40.877966 q -0.87404,0 -1.68084,-0.201701 -0.8068,-0.268934 -1.4119,-0.874035 -0.60511,-0.605102 -0.87404,-1.411904 -0.2017,-0.806802 -0.2017,-1.680837 0,-0.874036 0.2017,-1.680837 0.26893,-0.806802 0.87404,-1.411904 0.6051,-0.605101 1.4119,-0.874035 0.8068,-0.268934 1.68084,-0.268934 0.87403,0 1.68083,0.268934 0.80681,0.268934 1.41191,0.874035 0.6051,0.605102 0.87403,1.411904 0.26894,0.806801 0.26894,1.680837 0,0.874035 -0.26894,1.680837 -0.26893,0.806802 -0.87403,1.411904 -0.6051,0.605101 -1.41191,0.874035 -0.8068,0.201701 -1.68083,0.201701 z M 417.45485,99.416618 427.80881,81.935909 417.45485,64.4552 h 6.11825 l 7.12675,12.50543 7.12675,-12.50543 h 6.11825 l -10.35396,17.480709 10.35396,17.480709 h -6.11825 l -7.12675,-12.50543 -7.12675,12.50543 z"
       id="text5"
       aria-label="IdeaHelix" />
    <text
       xml:space="preserve"
       transform="matrix(0.26458333,0,0,0.26458333,30.000001,24.999985)"
       id="text6"
       style="text-align:start;writing-mode:lr-tb;direction:ltr;white-space:pre;shape-inside:url(#rect6);display:inline;fill:#55c5e4;fill-opacity:1" />
  </g>
</svg>
